<svg width="343" height="206" viewBox="0 0 343 206" fill="none" xmlns="http://www.w3.org/2000/svg">
<g clip-path="url(#clip0_16_17249)">
<path d="M343 4C343 1.79086 341.209 0 339 0H4C1.79086 0 0 1.79086 0 4V206H343V4Z" fill="#FCFCFC"/>
<path fill-rule="evenodd" clip-rule="evenodd" d="M92.3623 98.5508H99.7536C109.279 98.5508 117 106.272 117 115.797C117 125.322 109.279 133.044 99.7536 133.044H-1.75362C-11.2785 133.044 -19 125.322 -19 115.797C-19 106.272 -11.2785 98.5508 -1.75363 98.5508L-0.275269 98.5507C-0.275269 81.678 13.4028 68 30.2755 68C43.9568 68 55.5377 76.9931 59.4291 89.3904C62.5355 84.2489 68.1779 80.8116 74.6232 80.8116C84.4202 80.8116 92.3623 88.7537 92.3623 98.5507C92.3623 98.5507 92.3623 98.5508 92.3623 98.5508Z" fill="#FFDFEF"/>
<circle cx="18.9113" cy="18.9113" r="18.9113" transform="matrix(-0.992312 0.123758 0.123758 0.992312 69.2439 179.724)" fill="#0CCC9E"/>
<circle cx="18.9113" cy="18.9113" r="18.9113" transform="matrix(-0.992312 0.123758 0.123758 0.992312 138.585 179.724)" fill="#0CCC9E"/>
<circle cx="18.9113" cy="18.9113" r="18.9113" transform="matrix(-0.992312 0.123758 0.123758 0.992312 195.319 130.291)" fill="#0CCC9E"/>
<circle cx="18" cy="18" r="18" transform="matrix(-0.992312 0.123758 0.123758 0.992312 347.545 176)" fill="#0CCC9E"/>
<circle cx="18.9113" cy="18.9113" r="18.9113" transform="matrix(-0.992312 0.123758 0.123758 0.992312 52.6622 176.431)" fill="#0CCC9E"/>
<circle cx="18.9113" cy="18.9113" r="18.9113" transform="matrix(-0.992312 0.123758 0.123758 0.992312 166.319 135)" fill="#0CCC9E"/>
<circle cx="18.9113" cy="18.9113" r="18.9113" transform="matrix(-0.992312 0.123758 0.123758 0.992312 102.873 183.354)" fill="#0CCC9E"/>
<circle cx="18.9113" cy="18.9113" r="18.9113" transform="matrix(-0.992312 0.123758 0.123758 0.992312 33.5317 183.354)" fill="#0CCC9E"/>
<circle cx="18.9113" cy="18.9113" r="18.9113" transform="matrix(-0.992312 0.123758 0.123758 0.992312 170.113 159.354)" fill="#0CCC9E"/>
<path fill-rule="evenodd" clip-rule="evenodd" d="M265.246 47.2898L263.964 47.2898C255.7 47.2898 249 53.9893 249 62.2536C249 70.5179 255.7 77.2174 263.964 77.2174H352.036C360.3 77.2174 367 70.5179 367 62.2536C367 53.9893 360.3 47.2898 352.036 47.2898L345.623 47.2898C345.623 38.7895 338.732 31.8985 330.232 31.8985C324.64 31.8985 319.744 34.881 317.049 39.3421C313.672 28.5855 303.624 20.7826 291.754 20.7826C277.114 20.7826 265.246 32.6503 265.246 47.2898Z" fill="#F1F1F1"/>
<path d="M292.373 52.5593L283.89 68.0542C283.851 68.1249 283.831 68.2041 283.831 68.2847V87.7966" stroke="#5FAEFF" stroke-width="12" stroke-linecap="round"/>
<path d="M318 111.989V201C318 209.837 310.837 217 302 217H296.738H150.262H145C136.163 217 129 209.837 129 201V112.025C129 107.181 131.194 102.599 134.966 99.5617L213.781 36.1083C219.656 31.3784 228.037 31.3937 233.894 36.145L312.079 99.5625C315.825 102.601 318 107.166 318 111.989Z" fill="#5FAEFF"/>
<path d="M192 112.805C196.435 116.542 206.489 120.83 211.22 108.085" stroke="white" stroke-width="6" stroke-linecap="round"/>
<path d="M193.254 138.974C205.983 144.487 235.769 149.488 253.081 125.384" stroke="white" stroke-width="6" stroke-linecap="round"/>
<path d="M225.102 107.466C229.291 111.203 238.786 115.491 243.254 102.746" stroke="white" stroke-width="6" stroke-linecap="round"/>
<path d="M73 14C69.6667 14.6667 63.1 18.4 63.5 28C63 25 59.5 19.5 49.5 21.5" stroke="#031426" stroke-width="3" stroke-linecap="round"/>
<path d="M128.5 59C131.833 59.6667 138.4 63.4 138 73C138.5 70 142 64.5 152 66.5" stroke="#031426" stroke-width="3" stroke-linecap="round"/>
</g>
<defs>
<clipPath id="clip0_16_17249">
<path d="M343 4C343 1.79086 341.209 0 339 0H4C1.79086 0 0 1.79086 0 4V206H343V4Z" fill="white"/>
</clipPath>
</defs>
</svg>
