<svg width="343" height="206" viewBox="0 0 343 206" fill="none" xmlns="http://www.w3.org/2000/svg">
<g clip-path="url(#clip0_16_17443)">
<path d="M0 4C0 1.79086 1.79086 0 4 0H339C341.209 0 343 1.79086 343 4V206H0V4Z" fill="#FCFCFC"/>
<circle cx="299.089" cy="200.453" r="18" transform="rotate(7.10902 299.089 200.453)" fill="#0CCC9E"/>
<circle cx="233.089" cy="200.453" r="18" transform="rotate(7.10902 233.089 200.453)" fill="#0CCC9E"/>
<circle cx="179.089" cy="151.089" r="18" transform="rotate(7.10902 179.089 151.089)" fill="#0CCC9E"/>
<circle cx="13.0893" cy="204.089" r="18" transform="rotate(7.10902 13.0893 204.089)" fill="#0CCC9E"/>
<circle cx="321.535" cy="190.089" r="18" transform="rotate(7.10902 321.535 190.089)" fill="#0CCC9E"/>
<circle cx="255.535" cy="198.089" r="18" transform="rotate(7.10902 255.535 198.089)" fill="#0CCC9E"/>
<circle cx="267.081" cy="203.908" r="18" transform="rotate(7.10902 267.081 203.908)" fill="#0CCC9E"/>
<circle cx="333.081" cy="203.908" r="18" transform="rotate(7.10902 333.081 203.908)" fill="#0CCC9E"/>
<circle cx="211.081" cy="195.908" r="18" transform="rotate(7.10902 211.081 195.908)" fill="#0CCC9E"/>
<path fill-rule="evenodd" clip-rule="evenodd" d="M71 39H72.5C82.165 39 90 46.835 90 56.5C90 66.165 82.165 74 72.5 74H-30.5C-40.165 74 -48 66.165 -48 56.5C-48 46.835 -40.165 39 -30.5 39H-23C-23 29.0589 -14.9411 21 -5 21C1.54008 21 7.26551 24.4879 10.4176 29.7051C14.3662 17.1254 26.1174 8 40 8C57.1208 8 71 21.8792 71 39Z" fill="#F1F1F1"/>
<path fill-rule="evenodd" clip-rule="evenodd" d="M355 23H356.5C366.165 23 374 30.835 374 40.5C374 50.165 366.165 58 356.5 58H253.5C243.835 58 236 50.165 236 40.5C236 30.835 243.835 23 253.5 23H261C261 13.0589 269.059 5 279 5C285.54 5 291.266 8.48795 294.418 13.7051C298.366 1.12545 310.117 -8 324 -8C341.121 -8 355 5.87917 355 23Z" fill="#FFDFEF"/>
<path d="M263 79C266.333 79.6667 272.9 83.4 272.5 93C273 90 276.5 84.5 286.5 86.5" stroke="#031426" stroke-width="3" stroke-linecap="round"/>
<path d="M82.5 -14C79.1667 -13.3333 72.6 -9.6 73 0C72.5 -3 69 -8.5 59 -6.5" stroke="#031426" stroke-width="4" stroke-linecap="round"/>
<path d="M25 128C25 74.9807 67.9807 32 121 32C174.019 32 217 74.9807 217 128L217 214L25 214L25 128Z" fill="#FFE45E"/>
<path d="M77.4155 118.679C87.1277 134.122 102.8 156.872 143.245 134.122" stroke="#031426" stroke-width="6" stroke-linecap="round"/>
<path d="M149.86 116.626C147.626 110.229 140.087 100.016 127.802 110.343" stroke="#031426" stroke-width="6" stroke-linecap="round"/>
<path d="M110.925 101.152C108.691 94.755 101.152 84.5419 88.8671 94.8691" stroke="#031426" stroke-width="6" stroke-linecap="round"/>
</g>
<defs>
<clipPath id="clip0_16_17443">
<path d="M0 4C0 1.79086 1.79086 0 4 0H339C341.209 0 343 1.79086 343 4V206H0V4Z" fill="white"/>
</clipPath>
</defs>
</svg>
